PathFileType	4	(X/Y/Z)	HSS_squat2.trc
DataRate	CameraRate	NumFrames	NumMarkers	Units	OrigDataRate	OrigDataStartFrame	OrigNumFrames
120.0	120.0	7	44	mm	120.0	364	970
Frame#	Time		R.Shoulder		Offset		L.Shoulder		R.Elbow		R.Wrist.Radial		R.Wrist		R.Hand		L.Elbow		L.Wrist.Radial		L.Wrist		L.Hand		R.Hip		V.Sacral		L.PSIS		L.Hip		R.Thigh.Upper		R.Thigh.Front		R.Thigh.Rear		X.Shell.Lower.Thigh.Right		R.Knee.Lateral		R.Shank.Upper		R.Shank.Front		R.Shank.Rear		X.Shell.Lower.Shank.Right		R.Ankle.Lateral		R.Heel		R.Toe		L.Thigh.Upper		L.Thigh.Front		L.Thigh.Rear		X.Shell.Lower.Thigh.Left		L.Knee.Lateral		L.Shank.Upper		L.Shank.Front		L.Shank.Rear		X.Shell.Lower.Shank.Left		L.Ankle.Lateral		L.Heel		L.Toe		R.Troc		L.Troc		R.PSIS		L.ASIS		R.ASIS
			X1	Y1	Z1	X2	Y2	Z2	X3	Y3	Z3	X4	Y4	Z4	X5	Y5	Z5	X6	Y6	Z6	X7	Y7	Z7	X8	Y8	Z8	X9	Y9	Z9	X10	Y10	Z10	X11	Y11	Z11	X12	Y12	Z12	X13	Y13	Z13	X14	Y14	Z14	X15	Y15	Z15	X16	Y16	Z16	X17	Y17	Z17	X18	Y18	Z18	X19	Y19	Z19	X20	Y20	Z20	X21	Y21	Z21	X22	Y22	Z22	X23	Y23	Z23	X24	Y24	Z24	X25	Y25	Z25	X26	Y26	Z26	X27	Y27	Z27	X28	Y28	Z28	X29	Y29	Z29	X30	Y30	Z30	X31	Y31	Z31	X32	Y32	Z32	X33	Y33	Z33	X34	Y34	Z34	X35	Y35	Z35	X36	Y36	Z36	X37	Y37	Z37	X38	Y38	Z38	X39	Y39	Z39	X40	Y40	Z40	X41	Y41	Z41	X42	Y42	Z42	X43	Y43	Z43	X44	Y44	Z44

364	3.02500	143.44089	1483.18152	-100.43950	-143.78745	1388.33069	9.03896	-197.38560	1498.19116	-112.59364	258.48410	1257.43958	-357.32849	64.48976	1293.78491	-540.12354	116.92485	1317.94434	-578.98157	39.44740	1329.81836	-618.75616	-307.85400	1283.03076	-381.13605	-152.61205	1332.49609	-585.39716	-103.72334	1297.42651	-546.24072	-69.43217	1324.56653	-618.95538	123.95319	1032.12903	-136.98933	-29.32899	1026.80688	-18.16376	-69.89066	1032.16785	-23.04324	-175.11928	1030.04382	-144.53822	185.67989	698.68811	-183.99226	175.15251	663.41858	-221.31194	196.70761	659.14172	-163.63454	183.64713	627.88177	-194.96413	174.23991	517.11926	-146.55258	232.30554	376.51883	-123.63546	215.06596	328.95038	-149.19225	221.29832	341.50693	-89.51483	218.57407	299.07382	-110.13345	189.43462	72.98087	-83.51458	142.06618	33.80462	-41.90646	200.33403	31.22453	-238.62061	-224.93715	698.74689	-207.59224	-207.32646	650.53339	-233.84540	-241.26686	660.26605	-181.76207	-232.90802	628.48511	-212.33148	-216.93871	506.67737	-160.38271	-273.75748	314.81894	-111.94788	-260.78915	286.64630	-137.55632	-262.75702	278.00241	-77.86168	-269.06427	245.60002	-97.72464	-241.14415	75.70009	-97.63485	-197.41951	34.99875	-41.83361	-241.18730	32.21134	-241.18533	163.25755	889.85175	-143.95567	-214.54941	899.99097	-145.66803	14.80278	1031.36877	-20.50851	-131.89719	991.47577	-206.76735	92.00014	991.04755	-195.91447
365	3.03333	143.32765	1483.16675	-101.63912	-143.82239	1388.56091	8.14375	-197.32887	1498.05457	-113.75271	258.38651	1257.44702	-358.17664	64.49964	1293.75183	-541.11133	116.97513	1317.89697	-579.89832	39.47823	1329.78833	-619.80280	-307.91980	1282.93823	-382.12225	-152.71350	1332.44678	-586.41492	-103.72795	1297.28284	-547.34760	-69.38963	1324.50830	-620.12708	124.06592	1031.86157	-136.09309	-29.52386	1026.99377	-17.09186	-69.88816	1032.49548	-22.16197	-175.17987	1029.75928	-143.74408	185.76355	698.62921	-184.12769	175.15244	663.56470	-221.66640	196.74904	658.95251	-163.93056	183.68250	627.87720	-195.48766	174.24332	516.95374	-147.43881	232.40881	376.47128	-124.40533	215.11606	328.72809	-149.88899	221.43729	341.52048	-90.15156	218.63263	299.01932	-110.78082	189.42116	72.98102	-83.55520	142.03497	33.83185	-41.93033	200.35139	31.21541	-238.59805	-224.92438	698.69824	-207.60632	-207.26591	650.62158	-234.02364	-241.43677	659.76630	-182.01846	-232.86935	628.45966	-212.75719	-216.95602	506.50238	-161.17647	-273.81726	314.79602	-112.51115	-260.83340	286.49734	-138.05411	-262.79980	278.06256	-78.34132	-269.07141	245.57251	-98.13583	-241.14565	75.70726	-97.68999	-197.39008	35.00834	-41.85312	-241.21446	32.22649	-241.18816	163.33824	889.88922	-142.75685	-214.75800	899.97900	-144.71170	14.72176	1031.66467	-19.82010	-131.90128	990.88989	-205.52238	91.94569	990.63867	-194.97733
366	3.04167	143.23082	1483.12463	-102.47177	-143.96536	1388.78430	7.40648	-197.29774	1497.90527	-114.84905	258.39783	1257.38818	-359.14871	64.41286	1293.80493	-542.09064	116.90996	1317.75854	-580.94165	39.59186	1329.72937	-620.72943	-307.98648	1282.82629	-383.11911	-152.73799	1332.26196	-587.40521	-103.91029	1297.14160	-548.17743	-69.25789	1324.41553	-620.70795	124.06992	1031.60376	-135.11188	-29.46394	1027.20593	-16.33971	-70.05797	1032.66431	-21.16587	-175.15892	1029.46729	-142.86668	185.83572	698.61591	-184.24956	175.12621	663.69110	-222.07503	196.83453	658.77069	-164.21902	183.76147	627.87067	-196.05484	174.42502	516.84100	-148.77217	232.52452	376.38162	-125.32565	215.25757	328.58618	-150.71260	221.52533	341.48990	-91.02757	218.73175	298.94122	-111.39536	189.44073	72.98885	-83.60725	142.02821	33.83466	-41.94592	200.33922	31.22017	-238.65132	-224.90636	698.65985	-207.62019	-207.15858	650.71271	-234.22432	-241.46667	659.63458	-182.30812	-232.81296	628.44202	-213.22104	-216.92436	506.33261	-161.99915	-273.84039	314.78967	-113.05381	-260.82611	286.37946	-138.48691	-262.79419	278.08469	-78.92473	-269.07681	245.54352	-98.49117	-241.16251	75.73315	-97.75705	-197.38571	35.02394	-41.85147	-241.21057	32.21359	-241.18301	163.10049	889.63489	-141.47995	-214.93040	900.06744	-143.74654	14.75292	1032.15515	-18.42834	-131.85295	990.38220	-204.57767	92.03400	990.05939	-193.64178
367	3.05000	143.14343	1483.07458	-103.56615	-144.15347	1388.97083	6.54506	-197.28101	1497.76306	-116.03951	258.34863	1257.24536	-359.98215	64.35648	1293.60352	-543.01971	116.87232	1317.64502	-581.76562	39.60203	1329.57959	-621.64154	-307.96515	1282.66052	-384.18021	-152.76328	1332.14148	-588.45740	-103.86121	1297.00659	-549.34485	-69.35294	1324.26086	-621.98010	124.03432	1031.32837	-134.14209	-29.55227	1027.45312	-14.81751	-69.92190	1032.85083	-20.52834	-175.15248	1029.13611	-141.90849	185.85727	698.57947	-184.32886	175.11688	663.92615	-222.48715	196.94487	658.65240	-164.57509	183.85257	627.92273	-196.58328	174.61458	516.68933	-149.67029	232.64041	376.21689	-126.05518	215.33604	328.51483	-151.44791	221.56891	341.45438	-91.86489	218.86966	298.82809	-111.93610	189.39867	72.98139	-83.66178	141.99492	33.88456	-41.94833	200.35484	31.21697	-238.66464	-224.85544	698.61530	-207.63020	-207.08643	650.80975	-234.38403	-241.49542	659.49756	-182.61896	-232.78702	628.40552	-213.61603	-216.92642	506.13895	-162.96332	-273.91092	314.77179	-113.59570	-260.75266	286.24829	-139.11873	-262.75577	278.09531	-79.44641	-269.08792	245.50479	-98.92584	-241.17932	75.75494	-97.82837	-197.36075	35.00455	-41.85621	-241.23163	32.21190	-241.20015	162.95636	889.30347	-140.20605	-215.03171	900.03937	-142.66847	14.67626	1032.37927	-17.45680	-131.85573	989.76007	-203.30574	91.96777	989.53247	-192.65291
368	3.05833	143.07162	1482.92395	-104.71498	-144.30243	1389.21045	5.56961	-197.22859	1497.59424	-117.21143	258.33017	1257.17017	-360.91617	64.43718	1293.53650	-544.12524	116.92311	1317.45483	-582.96234	39.56689	1329.42676	-622.78632	-308.00571	1282.49878	-385.36392	-152.76112	1332.02429	-589.45026	-104.00114	1296.86658	-550.41125	-69.39546	1324.11646	-623.00134	124.10542	1031.00537	-133.28322	-29.59200	1027.59155	-13.96763	-69.99866	1032.98535	-19.46344	-175.18037	1028.64368	-140.99187	185.90753	698.57074	-184.46761	175.06937	664.15045	-222.79475	197.11391	658.57098	-165.11116	183.81737	627.98041	-197.16667	174.82201	516.54626	-150.60316	232.73851	376.08115	-126.99734	215.55775	328.36014	-152.20790	221.77354	341.42715	-92.58027	218.94202	298.72803	-112.70432	189.39966	73.00086	-83.72408	142.00551	33.88971	-41.96338	200.36339	31.22984	-238.66951	-224.84009	698.57520	-207.59871	-207.00758	650.92767	-234.60774	-241.50552	659.39075	-182.90053	-232.80507	628.41125	-214.05585	-216.97716	505.88519	-163.82005	-273.92441	314.70740	-114.19647	-260.72495	286.16418	-139.61348	-262.74258	278.07483	-79.91703	-269.10608	245.48256	-99.40931	-241.19829	75.78425	-97.97751	-197.32878	35.04683	-41.88838	-241.23862	32.21331	-241.17169	162.52342	889.06140	-138.93509	-215.17685	899.86920	-141.55388	14.61641	1032.35913	-16.80636	-131.90326	989.13416	-202.19237	92.00961	989.03168	-191.33662
369	3.06667	142.95558	1482.85034	-105.75669	-144.41988	1389.34583	4.75753	-197.14726	1497.35864	-118.41225	258.29459	1257.04944	-362.00208	64.38259	1293.17334	-545.19794	116.89130	1317.29517	-583.85266	39.62319	1329.15039	-623.82495	-308.02786	1282.35779	-386.45621	-152.76324	1331.81738	-590.69928	-104.04453	1296.71716	-551.44751	-69.41879	1323.89038	-624.18317	124.20904	1030.52551	-132.15341	-29.55464	1027.66833	-12.66320	-70.03193	1033.10181	-18.43589	-175.09944	1028.20532	-139.99829	185.97940	698.56616	-184.56178	175.00516	664.36011	-223.04828	197.25400	658.46722	-165.57407	183.81100	628.06323	-197.77904	175.01120	516.36212	-151.60320	232.93190	376.01889	-127.96771	215.66666	328.14633	-152.79211	221.94261	341.38248	-93.30821	219.05379	298.61307	-113.50906	189.42015	72.98663	-83.78526	141.97964	33.91390	-41.99031	200.35797	31.21998	-238.67043	-224.78395	698.53015	-207.58214	-206.87579	651.13599	-235.35449	-241.54141	659.23370	-183.16699	-232.78181	628.42535	-214.50023	-216.99820	505.74066	-164.58362	-273.93924	314.53738	-114.93792	-260.80075	286.10919	-140.17235	-262.83926	278.15271	-80.50721	-269.10571	245.47903	-99.95278	-241.22200	75.80979	-98.08060	-197.33009	35.05847	-41.88136	-241.28476	32.21250	-241.16194	162.78210	888.72400	-137.76361	-215.35484	899.74054	-140.40590	14.74724	1032.74817	-15.54910	-131.83159	988.47534	-200.97958	91.96958	988.44513	-190.22868
370	3.07500	142.73434	1482.67908	-106.96170	-144.52011	1389.46533	3.98322	-197.13240	1497.10571	-119.71551	258.17746	1256.92468	-362.99698	64.44604	1293.04089	-546.19867	116.93633	1317.08911	-584.89880	39.66798	1328.96655	-624.81787	-308.06738	1282.20483	-387.50479	-152.74146	1331.48462	-591.48407	-103.87614	1296.62341	-552.71667	-69.46237	1323.63196	-625.34033	124.13892	1030.06165	-131.11211	-29.48341	1027.71667	-11.47850	-69.97754	1033.26648	-17.47445	-175.12105	1027.85803	-139.04466	186.08476	698.55939	-184.68996	174.92387	664.50305	-223.25865	197.48465	658.04053	-166.19308	183.77995	628.09717	-198.27599	175.21941	516.16943	-152.63722	233.07626	375.92245	-128.60750	215.79700	327.92877	-153.57539	222.06619	341.34064	-94.07491	219.15686	298.56555	-114.01168	189.42747	72.98463	-83.80936	141.98764	33.91658	-41.97642	200.37091	31.21750	-238.69623	-224.75273	698.47614	-207.52361	-206.75362	651.23193	-235.54695	-241.61888	659.06299	-183.37355	-232.75507	628.40820	-214.93109	-217.11711	505.60529	-165.59041	-273.99152	314.45044	-115.70299	-260.81464	285.96649	-140.78047	-263.06430	278.18665	-81.08310	-269.14240	245.41072	-100.51404	-241.23343	75.78603	-98.13781	-197.31590	35.06767	-41.87770	-241.30194	32.20266	-241.14607	162.81622	888.62860	-136.82812	-215.40320	899.61395	-139.21288	14.54453	1032.93970	-14.38988	-131.83421	987.82916	-199.61484	92.02042	987.73962	-188.85623
